ffmpeg started on 2025-05-12 at 14:58:24
Report written to "D:\Convert\FFMetrics\reports\ssim_report-6.txt"
Log level: 32
Command line:
ffmpeg -hide_banner -nostdin -i "G:\\\xc0\xed\xe8\xec\xe5\\\xce\xed\xe3\xee\xe8\xed\xe3\xe8\\!_35_\xcb\xe5\xf2\xee_2024\\DreamCast\\\xc4\xe8\xf1\xea\xe2\xe0\xeb\xe8\xf4\xe8\xf6\xe8\xf0\xee\xe2\xe0\xed \xef\xee \xe6\xe8\xe7\xed\xe8\\[DC] Isekai Shikkaku - 11_Telegram_HEVC.mkv" -i "G:\\\xc0\xed\xe8\xec\xe5\\\xce\xed\xe3\xee\xe8\xed\xe3\xe8\\!_35_\xcb\xe5\xf2\xee_2024\\DreamCast\\\xc4\xe8\xf1\xea\xe2\xe0\xeb\xe8\xf4\xe8\xf6\xe8\xf0\xee\xe2\xe0\xed \xef\xee \xe6\xe8\xe7\xed\xe8\\[DC] Isekai Shikkaku - 11_Telegram.mp4" -lavfi "[0:v]settb=AVTB,setpts=PTS-STARTPTS,format=pix_fmts=yuv420p10,fps=24000/1001,scale=1920:1080:flags=bicubic[main];[1:v]settb=AVTB,setpts=PTS-STARTPTS,format=pix_fmts=yuv420p,fps=24000/1001,scale=1920:1080:flags=bicubic[ref];[main][ref]ssim=eof_action=endall:stats_file='D\\:/Convert/FFMetrics/logs/ssim_logfile-6.txt'" -f null -
Input #0, matroska,webm, from 'G:\Аниме\Онгоинги\!_35_Лето_2024\DreamCast\Дисквалифицирован по жизни\[DC] Isekai Shikkaku - 11_Telegram_HEVC.mkv':
  Metadata:
    COMPATIBLE_BRANDS: isomiso2avc1mp41
    MAJOR_BRAND     : isom
    MINOR_VERSION   : 512
    ENCODER         : Lavf61.7.100
  Duration: 00:23:46.73, start: -0.021000, bitrate: 1232 kb/s
  Stream #0:0: Video: hevc (Main 10), yuv420p10le(tv, bt709, progressive), 1920x1080 [SAR 1:1 DAR 16:9], 23.98 fps, 23.98 tbr, 1k tbn (default)
      Metadata:
        HANDLER_NAME    : VideoHandler
        VENDOR_ID       : [0][0][0][0]
        ENCODER         : Lavc61.19.100 libx265
        BPS             : 1035561
        DURATION        : 00:23:46.591708333
        NUMBER_OF_FRAMES: 34204
        NUMBER_OF_BYTES : 184665263
        _STATISTICS_WRITING_APP: mkvpropedit v66.0.0 ('Josie') 64-bit
        _STATISTICS_WRITING_DATE_UTC: 2025-05-07 11:57:47
        _STATISTICS_TAGS: BPS DURATION NUMBER_OF_FRAMES NUMBER_OF_BYTES
  Stream #0:1: Audio: aac (LC), 48000 Hz, stereo, fltp (default)
      Metadata:
        HANDLER_NAME    : SoundHandler
        VENDOR_ID       : [0][0][0][0]
        ENCODER         : Lavc61.19.100 aac
        BPS             : 193372
        DURATION        : 00:23:46.730000000
        NUMBER_OF_FRAMES: 66879
        NUMBER_OF_BYTES : 34486330
        _STATISTICS_WRITING_APP: mkvpropedit v66.0.0 ('Josie') 64-bit
        _STATISTICS_WRITING_DATE_UTC: 2025-05-07 11:57:47
        _STATISTICS_TAGS: BPS DURATION NUMBER_OF_FRAMES NUMBER_OF_BYTES
Input #1, mov,mp4,m4a,3gp,3g2,mj2, from 'G:\Аниме\Онгоинги\!_35_Лето_2024\DreamCast\Дисквалифицирован по жизни\[DC] Isekai Shikkaku - 11_Telegram.mp4':
  Metadata:
    major_brand     : isom
    minor_version   : 512
    compatible_brands: isomiso2avc1mp41
    encoder         : Lavf61.1.100
  Duration: 00:23:46.70, start: 0.000000, bitrate: 3845 kb/s
  Stream #1:0[0x1](und): Video: h264 (High) (avc1 / 0x31637661), yuv420p(tv, bt709, progressive), 1920x1080 [SAR 1:1 DAR 16:9], 3697 kb/s, 23.98 fps, 23.98 tbr, 24k tbn (default)
      Metadata:
        handler_name    : VideoHandler
        vendor_id       : [0][0][0][0]
        encoder         : Lavc61.3.100 h264_qsv
  Stream #1:1[0x2](und): Audio: aac (HE-AACv2) (mp4a / 0x6134706D), 48000 Hz, stereo, fltp, 144 kb/s (default)
      Metadata:
        handler_name    : SoundHandler
        vendor_id       : [0][0][0][0]
Stream mapping:
  Stream #0:0 (hevc) -> settb:default
  Stream #1:0 (h264) -> settb:default
  ssim:default -> Stream #0:0 (wrapped_avframe)
  Stream #0:1 -> #0:1 (aac (native) -> pcm_s16le (native))
Output #0, null, to 'pipe:':
  Metadata:
    COMPATIBLE_BRANDS: isomiso2avc1mp41
    MAJOR_BRAND     : isom
    MINOR_VERSION   : 512
    encoder         : Lavf61.7.100
  Stream #0:0: Video: wrapped_avframe, yuv420p10le(tv, bt709, progressive), 1920x1080 [SAR 1:1 DAR 16:9], q=2-31, 200 kb/s, 23.98 fps, 23.98 tbn
      Metadata:
        encoder         : Lavc61.19.100 wrapped_avframe
  Stream #0:1: Audio: pcm_s16le, 48000 Hz, stereo, s16, 1536 kb/s (default)
      Metadata:
        HANDLER_NAME    : SoundHandler
        VENDOR_ID       : [0][0][0][0]
        _STATISTICS_TAGS: BPS DURATION NUMBER_OF_FRAMES NUMBER_OF_BYTES
        BPS             : 193372
        DURATION        : 00:23:46.730000000
        NUMBER_OF_FRAMES: 66879
        NUMBER_OF_BYTES : 34486330
        _STATISTICS_WRITING_APP: mkvpropedit v66.0.0 ('Josie') 64-bit
        _STATISTICS_WRITING_DATE_UTC: 2025-05-07 11:57:47
        encoder         : Lavc61.19.100 pcm_s16le
frame=  163 fps=0.0 q=-0.0 size=N/A time=00:00:06.79 bitrate=N/A speed=13.1x    frame=  379 fps=367 q=-0.0 size=N/A time=00:00:15.80 bitrate=N/A speed=15.3x    frame=  612 fps=394 q=-0.0 size=N/A time=00:00:25.52 bitrate=N/A speed=16.4x    frame=  784 fps=379 q=-0.0 size=N/A time=00:00:32.69 bitrate=N/A speed=15.8x    frame=  983 fps=380 q=-0.0 size=N/A time=00:00:40.99 bitrate=N/A speed=15.9x    frame= 1159 fps=375 q=-0.0 size=N/A time=00:00:48.33 bitrate=N/A speed=15.6x    frame= 1368 fps=379 q=-0.0 size=N/A time=00:00:57.05 bitrate=N/A speed=15.8x    frame= 1542 fps=373 q=-0.0 size=N/A time=00:01:04.31 bitrate=N/A speed=15.6x    frame= 1758 fps=379 q=-0.0 size=N/A time=00:01:13.32 bitrate=N/A speed=15.8x    frame= 1944 fps=377 q=-0.0 size=N/A time=00:01:21.08 bitrate=N/A speed=15.7x    frame= 2111 fps=372 q=-0.0 size=N/A time=00:01:28.04 bitrate=N/A speed=15.5x    frame= 2336 fps=377 q=-0.0 size=N/A time=00:01:37.43 bitrate=N/A speed=15.7x    frame= 2574 fps=384 q=-0.0 size=N/A time=00:01:47.35 bitrate=N/A speed=  16x    frame= 2795 fps=387 q=-0.0 size=N/A time=00:01:56.57 bitrate=N/A speed=16.1x    frame= 3052 fps=394 q=-0.0 size=N/A time=00:02:07.29 bitrate=N/A speed=16.4x    frame= 3288 fps=399 q=-0.0 size=N/A time=00:02:17.13 bitrate=N/A speed=16.6x    frame= 3544 fps=404 q=-0.0 size=N/A time=00:02:27.81 bitrate=N/A speed=16.9x    frame= 3794 fps=409 q=-0.0 size=N/A time=00:02:38.24 bitrate=N/A speed=17.1x    frame= 3985 fps=406 q=-0.0 size=N/A time=00:02:46.20 bitrate=N/A speed=  17x    frame= 4157 fps=403 q=-0.0 size=N/A time=00:02:53.38 bitrate=N/A speed=16.8x    frame= 4350 fps=402 q=-0.0 size=N/A time=00:03:01.43 bitrate=N/A speed=16.7x    frame= 4592 fps=404 q=-0.0 size=N/A time=00:03:11.52 bitrate=N/A speed=16.9x    frame= 4794 fps=404 q=-0.0 size=N/A time=00:03:19.94 bitrate=N/A speed=16.9x    frame= 4991 fps=403 q=-0.0 size=N/A time=00:03:28.16 bitrate=N/A speed=16.8x    frame= 5200 fps=403 q=-0.0 size=N/A time=00:03:36.88 bitrate=N/A speed=16.8x    frame= 5399 fps=402 q=-0.0 size=N/A time=00:03:45.18 bitrate=N/A speed=16.8x    frame= 5637 fps=405 q=-0.0 size=N/A time=00:03:55.10 bitrate=N/A speed=16.9x    frame= 5782 fps=400 q=-0.0 size=N/A time=00:04:01.15 bitrate=N/A speed=16.7x    frame= 6018 fps=403 q=-0.0 size=N/A time=00:04:11.00 bitrate=N/A speed=16.8x    frame= 6276 fps=406 q=-0.0 size=N/A time=00:04:21.76 bitrate=N/A speed=16.9x    frame= 6491 fps=406 q=-0.0 size=N/A time=00:04:30.72 bitrate=N/A speed=16.9x    frame= 6755 fps=409 q=-0.0 size=N/A time=00:04:41.73 bitrate=N/A speed=17.1x    frame= 7017 fps=412 q=-0.0 size=N/A time=00:04:52.66 bitrate=N/A speed=17.2x    frame= 7287 fps=416 q=-0.0 size=N/A time=00:05:03.92 bitrate=N/A speed=17.3x    frame= 7551 fps=418 q=-0.0 size=N/A time=00:05:14.93 bitrate=N/A speed=17.4x    frame= 7795 fps=420 q=-0.0 size=N/A time=00:05:25.11 bitrate=N/A speed=17.5x    frame= 8052 fps=422 q=-0.0 size=N/A time=00:05:35.83 bitrate=N/A speed=17.6x    frame= 8277 fps=422 q=-0.0 size=N/A time=00:05:45.21 bitrate=N/A speed=17.6x    frame= 8529 fps=424 q=-0.0 size=N/A time=00:05:55.73 bitrate=N/A speed=17.7x    frame= 8787 fps=426 q=-0.0 size=N/A time=00:06:06.49 bitrate=N/A speed=17.8x    frame= 9044 fps=428 q=-0.0 size=N/A time=00:06:17.21 bitrate=N/A speed=17.8x    frame= 9275 fps=428 q=-0.0 size=N/A time=00:06:26.84 bitrate=N/A speed=17.8x    frame= 9543 fps=430 q=-0.0 size=N/A time=00:06:38.02 bitrate=N/A speed=17.9x    frame= 9793 fps=431 q=-0.0 size=N/A time=00:06:48.44 bitrate=N/A speed=  18x    frame=10047 fps=433 q=-0.0 size=N/A time=00:06:59.04 bitrate=N/A speed=  18x    frame=10318 fps=435 q=-0.0 size=N/A time=00:07:10.34 bitrate=N/A speed=18.1x    frame=10562 fps=435 q=-0.0 size=N/A time=00:07:20.52 bitrate=N/A speed=18.2x    frame=10828 fps=437 q=-0.0 size=N/A time=00:07:31.61 bitrate=N/A speed=18.2x    frame=11050 fps=437 q=-0.0 size=N/A time=00:07:40.87 bitrate=N/A speed=18.2x    frame=11274 fps=437 q=-0.0 size=N/A time=00:07:50.21 bitrate=N/A speed=18.2x    frame=11534 fps=438 q=-0.0 size=N/A time=00:08:01.06 bitrate=N/A speed=18.3x    frame=11788 fps=439 q=-0.0 size=N/A time=00:08:11.65 bitrate=N/A speed=18.3x    frame=12005 fps=439 q=-0.0 size=N/A time=00:08:20.70 bitrate=N/A speed=18.3x    frame=12241 fps=439 q=-0.0 size=N/A time=00:08:30.55 bitrate=N/A speed=18.3x    frame=12506 fps=440 q=-0.0 size=N/A time=00:08:41.60 bitrate=N/A speed=18.4x    frame=12751 fps=441 q=-0.0 size=N/A time=00:08:51.82 bitrate=N/A speed=18.4x    frame=13013 fps=442 q=-0.0 size=N/A time=00:09:02.75 bitrate=N/A speed=18.4x    frame=13260 fps=443 q=-0.0 size=N/A time=00:09:13.05 bitrate=N/A speed=18.5x    frame=13531 fps=444 q=-0.0 size=N/A time=00:09:24.35 bitrate=N/A speed=18.5x    frame=13709 fps=443 q=-0.0 size=N/A time=00:09:31.77 bitrate=N/A speed=18.5x    frame=13880 fps=441 q=-0.0 size=N/A time=00:09:38.91 bitrate=N/A speed=18.4x    frame=14123 fps=441 q=-0.0 size=N/A time=00:09:49.04 bitrate=N/A speed=18.4x    frame=14370 fps=442 q=-0.0 size=N/A time=00:09:59.34 bitrate=N/A speed=18.4x    frame=14611 fps=442 q=-0.0 size=N/A time=00:10:09.40 bitrate=N/A speed=18.4x    frame=14878 fps=443 q=-0.0 size=N/A time=00:10:20.53 bitrate=N/A speed=18.5x    frame=15121 fps=444 q=-0.0 size=N/A time=00:10:30.67 bitrate=N/A speed=18.5x    frame=15372 fps=445 q=-0.0 size=N/A time=00:10:41.14 bitrate=N/A speed=18.5x    frame=15556 fps=443 q=-0.0 size=N/A time=00:10:48.81 bitrate=N/A speed=18.5x    frame=15762 fps=443 q=-0.0 size=N/A time=00:10:57.40 bitrate=N/A speed=18.5x    frame=16024 fps=444 q=-0.0 size=N/A time=00:11:08.33 bitrate=N/A speed=18.5x    frame=16286 fps=445 q=-0.0 size=N/A time=00:11:19.26 bitrate=N/A speed=18.5x    frame=16555 fps=445 q=-0.0 size=N/A time=00:11:30.48 bitrate=N/A speed=18.6x    frame=16829 fps=447 q=-0.0 size=N/A time=00:11:41.90 bitrate=N/A speed=18.6x    frame=17091 fps=448 q=-0.0 size=N/A time=00:11:52.83 bitrate=N/A speed=18.7x    frame=17334 fps=448 q=-0.0 size=N/A time=00:12:02.97 bitrate=N/A speed=18.7x    frame=17581 fps=448 q=-0.0 size=N/A time=00:12:13.27 bitrate=N/A speed=18.7x    frame=17798 fps=448 q=-0.0 size=N/A time=00:12:22.32 bitrate=N/A speed=18.7x    frame=18014 fps=448 q=-0.0 size=N/A time=00:12:31.33 bitrate=N/A speed=18.7x    frame=18279 fps=448 q=-0.0 size=N/A time=00:12:42.38 bitrate=N/A speed=18.7x    frame=18524 fps=449 q=-0.0 size=N/A time=00:12:52.60 bitrate=N/A speed=18.7x    frame=18800 fps=450 q=-0.0 size=N/A time=00:13:04.11 bitrate=N/A speed=18.8x    frame=19017 fps=449 q=-0.0 size=N/A time=00:13:13.16 bitrate=N/A speed=18.7x    frame=19265 fps=450 q=-0.0 size=N/A time=00:13:23.51 bitrate=N/A speed=18.8x    frame=19479 fps=449 q=-0.0 size=N/A time=00:13:32.43 bitrate=N/A speed=18.7x    frame=19739 fps=450 q=-0.0 size=N/A time=00:13:43.28 bitrate=N/A speed=18.8x    frame=19979 fps=450 q=-0.0 size=N/A time=00:13:53.29 bitrate=N/A speed=18.8x    frame=20217 fps=450 q=-0.0 size=N/A time=00:14:03.21 bitrate=N/A speed=18.8x    frame=20465 fps=450 q=-0.0 size=N/A time=00:14:13.56 bitrate=N/A speed=18.8x    frame=20700 fps=451 q=-0.0 size=N/A time=00:14:23.36 bitrate=N/A speed=18.8x    frame=20956 fps=451 q=-0.0 size=N/A time=00:14:34.03 bitrate=N/A speed=18.8x    frame=21168 fps=451 q=-0.0 size=N/A time=00:14:42.88 bitrate=N/A speed=18.8x    frame=21402 fps=451 q=-0.0 size=N/A time=00:14:52.64 bitrate=N/A speed=18.8x    frame=21634 fps=451 q=-0.0 size=N/A time=00:15:02.31 bitrate=N/A speed=18.8x    frame=21874 fps=451 q=-0.0 size=N/A time=00:15:12.32 bitrate=N/A speed=18.8x    frame=22095 fps=451 q=-0.0 size=N/A time=00:15:21.54 bitrate=N/A speed=18.8x    frame=22349 fps=451 q=-0.0 size=N/A time=00:15:32.13 bitrate=N/A speed=18.8x    frame=22584 fps=451 q=-0.0 size=N/A time=00:15:41.94 bitrate=N/A speed=18.8x    frame=22816 fps=451 q=-0.0 size=N/A time=00:15:51.61 bitrate=N/A speed=18.8x    frame=23082 fps=452 q=-0.0 size=N/A time=00:16:02.71 bitrate=N/A speed=18.8x    frame=23328 fps=452 q=-0.0 size=N/A time=00:16:12.97 bitrate=N/A speed=18.9x    frame=23549 fps=452 q=-0.0 size=N/A time=00:16:22.18 bitrate=N/A speed=18.8x    frame=23824 fps=453 q=-0.0 size=N/A time=00:16:33.65 bitrate=N/A speed=18.9x    frame=24071 fps=453 q=-0.0 size=N/A time=00:16:43.96 bitrate=N/A speed=18.9x    frame=24310 fps=453 q=-0.0 size=N/A time=00:16:53.92 bitrate=N/A speed=18.9x    frame=24575 fps=453 q=-0.0 size=N/A time=00:17:04.98 bitrate=N/A speed=18.9x    frame=24821 fps=454 q=-0.0 size=N/A time=00:17:15.24 bitrate=N/A speed=18.9x    frame=25065 fps=454 q=-0.0 size=N/A time=00:17:25.41 bitrate=N/A speed=18.9x    frame=25301 fps=454 q=-0.0 size=N/A time=00:17:35.26 bitrate=N/A speed=18.9x    frame=25536 fps=454 q=-0.0 size=N/A time=00:17:45.06 bitrate=N/A speed=18.9x    frame=25781 fps=454 q=-0.0 size=N/A time=00:17:55.28 bitrate=N/A speed=18.9x    frame=26013 fps=454 q=-0.0 size=N/A time=00:18:04.95 bitrate=N/A speed=18.9x    frame=26261 fps=454 q=-0.0 size=N/A time=00:18:15.30 bitrate=N/A speed=18.9x    frame=26493 fps=454 q=-0.0 size=N/A time=00:18:24.97 bitrate=N/A speed=18.9x    frame=26738 fps=454 q=-0.0 size=N/A time=00:18:35.19 bitrate=N/A speed=18.9x    frame=27005 fps=455 q=-0.0 size=N/A time=00:18:46.33 bitrate=N/A speed=  19x    frame=27275 fps=455 q=-0.0 size=N/A time=00:18:57.59 bitrate=N/A speed=  19x    frame=27557 fps=456 q=-0.0 size=N/A time=00:19:09.35 bitrate=N/A speed=  19x    frame=27815 fps=457 q=-0.0 size=N/A time=00:19:20.11 bitrate=N/A speed=  19x    frame=28036 fps=456 q=-0.0 size=N/A time=00:19:29.33 bitrate=N/A speed=  19x    frame=28258 fps=456 q=-0.0 size=N/A time=00:19:38.59 bitrate=N/A speed=  19x    frame=28511 fps=456 q=-0.0 size=N/A time=00:19:49.14 bitrate=N/A speed=  19x    frame=28738 fps=456 q=-0.0 size=N/A time=00:19:58.61 bitrate=N/A speed=  19x    frame=28946 fps=456 q=-0.0 size=N/A time=00:20:07.28 bitrate=N/A speed=  19x    frame=29142 fps=455 q=-0.0 size=N/A time=00:20:15.46 bitrate=N/A speed=  19x    frame=29356 fps=455 q=-0.0 size=N/A time=00:20:24.38 bitrate=N/A speed=  19x    frame=29622 fps=455 q=-0.0 size=N/A time=00:20:35.48 bitrate=N/A speed=  19x    frame=29887 fps=456 q=-0.0 size=N/A time=00:20:46.53 bitrate=N/A speed=  19x    frame=30130 fps=456 q=-0.0 size=N/A time=00:20:56.67 bitrate=N/A speed=  19x    frame=30353 fps=456 q=-0.0 size=N/A time=00:21:05.97 bitrate=N/A speed=  19x    frame=30588 fps=456 q=-0.0 size=N/A time=00:21:15.77 bitrate=N/A speed=  19x    frame=30856 fps=456 q=-0.0 size=N/A time=00:21:26.95 bitrate=N/A speed=  19x    frame=31117 fps=457 q=-0.0 size=N/A time=00:21:37.83 bitrate=N/A speed=  19x    frame=31340 fps=457 q=-0.0 size=N/A time=00:21:47.13 bitrate=N/A speed=  19x    frame=31571 fps=456 q=-0.0 size=N/A time=00:21:56.77 bitrate=N/A speed=  19x    frame=31802 fps=456 q=-0.0 size=N/A time=00:22:06.40 bitrate=N/A speed=  19x    frame=32070 fps=457 q=-0.0 size=N/A time=00:22:17.58 bitrate=N/A speed=19.1x    frame=32271 fps=456 q=-0.0 size=N/A time=00:22:25.96 bitrate=N/A speed=  19x    frame=32482 fps=456 q=-0.0 size=N/A time=00:22:34.77 bitrate=N/A speed=  19x    frame=32708 fps=456 q=-0.0 size=N/A time=00:22:44.19 bitrate=N/A speed=  19x    frame=32947 fps=456 q=-0.0 size=N/A time=00:22:54.16 bitrate=N/A speed=  19x    frame=33183 fps=456 q=-0.0 size=N/A time=00:23:04.00 bitrate=N/A speed=  19x    frame=33389 fps=455 q=-0.0 size=N/A time=00:23:12.59 bitrate=N/A speed=  19x    frame=33593 fps=455 q=-0.0 size=N/A time=00:23:21.10 bitrate=N/A speed=  19x    frame=33820 fps=455 q=-0.0 size=N/A time=00:23:30.57 bitrate=N/A speed=  19x    frame=34062 fps=455 q=-0.0 size=N/A time=00:23:40.66 bitrate=N/A speed=  19x    [Parsed_ssim_10 @ 000001bd787da340] SSIM Y:0.993896 (22.143777) U:0.992297 (21.133216) V:0.993175 (21.659218) All:0.993509 (21.877065)
[out#0/null @ 000001bd78a91440] video:14697KiB audio:267516KiB subtitle:0KiB other streams:0KiB global headers:0KiB muxing overhead: unknown
frame=34204 fps=455 q=-0.0 Lsize=N/A time=00:23:46.59 bitrate=N/A speed=  19x    
